<svg class="icon" xmlns="http://www.w3.org/2000/svg" viewBox="0 0 18 18"><title>Game Jolt</title><path d="M14 1v1h-1v1h-1v1h-1v2h2v1h-1v1h-1v1h-1v1H9v1H8v1H7v1H6v1H5v1H4v3h1v-1h1v-1h1v-1h1v-1h1v-1h1v-1h1v-1h1v-1h1V9h1V8h1V7h1V6h-2V4h1V3h1V2h1V1z M1 9v2h6V9z " /><path d="M4 0v2H3v2H2v2H1v2H0v2h6v2H5v2H4v2h1v-1h1v-1h1v-1h1v-1h1v-1h1v-1h1V9h1V8h1V7h1V6h1V5h-3V4h1V3h1V2h1V1h1V0z m0 16H3v1h1z " /><path d="M5 2v2H4v2h1v1h1V6h1v1h1V6h1V5h1V4h1V3h1V2H5z m3 5v1h1V7H8z M7 7H6v1h1V7z M5 7H4v1h1V7z M4 7V6H3v1h1z " /><path d="M4 6v1h1V6H4zm1 1v1h1V7H5zm1 0h1V6H6v1zm1 0v1h1V7H7zm1 0h1V6H8v1zm1 0v1H8v2h1V9h1V7H9z" /></svg>